<svg xmlns="http://www.w3.org/2000/svg" width="19.691" height="16" viewBox="0 0 19.691 16">
  <path id="Twitter_-_Original" data-name="Twitter - Original" d="M6.192,20.5A11.417,11.417,0,0,0,17.687,9c0-.175,0-.349-.012-.522a8.22,8.22,0,0,0,2.016-2.091,8.054,8.054,0,0,1-2.32.636,4.053,4.053,0,0,0,1.776-2.235,8.094,8.094,0,0,1-2.565.981A4.044,4.044,0,0,0,9.7,9.457,11.47,11.47,0,0,1,5.085,8.232a11.47,11.47,0,0,1-3.714-3,4.043,4.043,0,0,0,1.251,5.393,4,4,0,0,1-1.834-.506v.051a4.041,4.041,0,0,0,3.241,3.96A4.033,4.033,0,0,1,2.2,14.2,4.045,4.045,0,0,0,5.979,17.01,8.1,8.1,0,0,1,0,18.684,11.438,11.438,0,0,0,6.192,20.5" transform="translate(0 -4.499)"/>
</svg>
