<svg xmlns="http://www.w3.org/2000/svg" width="16" height="13.155" viewBox="0 0 16 13.155">
  <path id="logo-mail" d="M102.249,586.973h-12.3a1.855,1.855,0,0,0-1.852,1.853v9.45a1.855,1.855,0,0,0,1.852,1.853h12.3a1.855,1.855,0,0,0,1.852-1.853v-9.45A1.855,1.855,0,0,0,102.249,586.973ZM101,588.629l-4.9,3.918-4.9-3.918Zm1.251,9.843h-12.3a.2.2,0,0,1-.2-.2v-8.683l5.826,4.662a.828.828,0,0,0,1.035,0l5.827-4.662v8.683A.2.2,0,0,1,102.249,598.472Z" transform="translate(-88.101 -586.973)" fill="#333"/>
</svg>
