<svg xmlns="http://www.w3.org/2000/svg" width="16.3" height="16.3" viewBox="0 0 16.3 16.3">
  <path id="logo-search" d="M-2356.145,350.177l-5.26-5.26a5.885,5.885,0,0,1-3.491,1.141,5.961,5.961,0,0,1-5.955-5.954,5.961,5.961,0,0,1,5.955-5.953,5.96,5.96,0,0,1,5.953,5.953,5.887,5.887,0,0,1-1.141,3.491l5.26,5.26a.935.935,0,0,1,0,1.321.929.929,0,0,1-.661.274A.929.929,0,0,1-2356.145,350.177Zm-12.837-10.073a4.09,4.09,0,0,0,4.086,4.085,4.089,4.089,0,0,0,4.085-4.085,4.089,4.089,0,0,0-4.085-4.085A4.09,4.09,0,0,0-2368.982,340.1Z" transform="translate(2370.85 -334.15)" fill="#333"/>
</svg>
