<?xml version="1.0" encoding="utf-8"?>
<!-- Generator: Adobe Illustrator 24.1.1, SVG Export Plug-In . SVG Version: 6.00 Build 0)  -->
<svg version="1.1" xmlns="http://www.w3.org/2000/svg" xmlns:xlink="http://www.w3.org/1999/xlink" x="0px" y="0px"
	 viewBox="0 0 333.81 81.55" style="enable-background:new 0 0 333.81 81.55;" xml:space="preserve">
<style type="text/css">
	.st0{fill:none;}
	.st1{fill:#E31F26;}
</style>
<g id="Isolation_area">
	<rect x="23.95" y="-9.14" class="st0" width="285.91" height="99.84"/>
</g>
<g id="logo">
	<g>
		<g>
			<path d="M112.28,24.49h-0.16v21.39c0,0.14-0.08,0.28-0.21,0.33c-0.57,0.22-1.4,0.31-2.54,0.31c-1.07,0-1.93-0.09-2.5-0.31
				c-0.13-0.05-0.21-0.19-0.21-0.33V20.73c0-0.17,0.11-0.32,0.28-0.35c1.14-0.22,3-0.35,4.79-0.35c1.9,0,3.34,0.13,4.38,0.36
				c0.13,0.03,0.22,0.12,0.26,0.25l6.38,20.62h0.16l6.06-20.61c0.04-0.13,0.13-0.22,0.26-0.25c1.04-0.23,2.48-0.36,4.38-0.36
				c1.79,0,3.5,0.12,4.61,0.34c0.17,0.03,0.28,0.18,0.28,0.35v25.15c0,0.14-0.08,0.28-0.21,0.33c-0.56,0.22-1.36,0.31-2.5,0.31
				c-1.07,0-1.96-0.09-2.54-0.31c-0.13-0.05-0.21-0.19-0.21-0.33V24.49h-0.16l-7.23,21.57c-0.03,0.1-0.11,0.19-0.21,0.22
				c-0.61,0.21-1.5,0.31-2.8,0.31c-1.15,0-2.1-0.09-2.72-0.31c-0.1-0.04-0.18-0.12-0.21-0.22L112.28,24.49z M144.75,20.75
				c0-0.15,0.08-0.28,0.22-0.33c0.63-0.24,1.6-0.39,2.86-0.39c1.29,0,2.24,0.14,2.83,0.38c0.13,0.05,0.21,0.19,0.21,0.33V45.8
				c0,0.14-0.08,0.28-0.21,0.33c-0.59,0.24-1.54,0.38-2.83,0.38c-1.26,0-2.24-0.15-2.86-0.39c-0.14-0.05-0.22-0.19-0.22-0.33V20.75z
				 M190.01,42.5c3.61,0,5.03-1.25,5.03-3.2c0-5.42-13.5-2.51-13.5-11.94c0-5.27,3.81-8.03,10.05-8.03c2.68,0,4.96,0.5,7.04,1.57
				c0.06,0.03,0.11,0.08,0.15,0.14c0.76,1.18,1.18,2.93,1.09,4.44c-0.01,0.27-0.29,0.43-0.52,0.31c-2.12-1.08-4.75-1.81-7.31-1.81
				c-3,0-4.34,0.99-4.34,2.69c0,5.08,13.42,2.39,13.42,11.94c0,6.48-4.9,8.62-11.02,8.62c-2.95,0-5.74-0.5-7.96-1.43
				c-0.07-0.03-0.13-0.08-0.17-0.15c-0.82-1.28-1.18-3.2-1.09-4.7c0.02-0.26,0.29-0.42,0.52-0.31
				C183.67,41.73,187.21,42.5,190.01,42.5z M211.3,36.46c0,3.91,1.78,5.75,5.84,5.75c4.38,0,6.08-2.21,6.08-5.86V20.74
				c0-0.14,0.08-0.28,0.21-0.33c0.6-0.24,1.56-0.38,2.75-0.38c1.29,0,2.23,0.14,2.8,0.38c0.13,0.05,0.2,0.19,0.2,0.32v15.25
				c0,7.04-3.69,11.24-12.32,11.24c-7.94,0-11.67-3.57-11.67-10.28V20.75c0-0.15,0.08-0.28,0.22-0.33c0.63-0.24,1.6-0.39,2.86-0.39
				c1.29,0,2.24,0.14,2.83,0.38c0.13,0.05,0.21,0.19,0.21,0.33V36.46z M261.77,20.75c0-0.15,0.08-0.28,0.22-0.33
				c0.63-0.24,1.6-0.39,2.86-0.39c1.29,0,2.24,0.14,2.83,0.38c0.13,0.05,0.21,0.19,0.21,0.33V45.8c0,0.14-0.08,0.28-0.21,0.33
				c-0.59,0.24-1.54,0.38-2.83,0.38c-1.26,0-2.24-0.15-2.86-0.39c-0.14-0.05-0.22-0.19-0.22-0.33V20.75z M281.58,42.5
				c3.61,0,5.03-1.25,5.03-3.2c0-5.42-13.5-2.51-13.5-11.94c0-5.27,3.81-8.03,10.05-8.03c2.68,0,4.96,0.5,7.04,1.57
				c0.06,0.03,0.11,0.08,0.15,0.14c0.76,1.18,1.18,2.93,1.09,4.44c-0.01,0.27-0.29,0.43-0.52,0.31c-2.12-1.08-4.75-1.81-7.31-1.81
				c-3,0-4.34,0.99-4.34,2.69c0,5.08,13.42,2.39,13.42,11.94c0,6.48-4.9,8.62-11.02,8.62c-2.95,0-5.74-0.5-7.96-1.43
				c-0.07-0.03-0.13-0.08-0.17-0.15c-0.82-1.28-1.18-3.2-1.09-4.7c0.02-0.26,0.29-0.42,0.52-0.31
				C275.24,41.73,278.78,42.5,281.58,42.5z M327.69,20.75c0-0.15,0.08-0.28,0.22-0.33c0.63-0.24,1.6-0.39,2.86-0.39
				c1.29,0,2.24,0.14,2.83,0.38c0.13,0.05,0.21,0.19,0.21,0.33V45.8c0,0.14-0.08,0.28-0.21,0.33c-0.59,0.24-1.54,0.38-2.83,0.38
				c-1.26,0-2.24-0.15-2.86-0.39c-0.14-0.05-0.22-0.19-0.22-0.33V20.75z M163.87,25.07h-7.91c-0.15,0-0.29-0.1-0.34-0.24
				c-0.19-0.53-0.34-1.38-0.34-2.23c0-0.85,0.15-1.67,0.34-2.19c0.05-0.14,0.19-0.24,0.34-0.24h21.94c0.15,0,0.29,0.1,0.34,0.24
				c0.19,0.52,0.34,1.34,0.34,2.19s-0.15,1.7-0.34,2.23c-0.05,0.14-0.19,0.24-0.34,0.24h-7.91V45.8c0,0.14-0.08,0.28-0.21,0.33
				c-0.59,0.24-1.54,0.38-2.83,0.38c-1.3,0-2.24-0.15-2.86-0.39c-0.14-0.05-0.22-0.19-0.22-0.33V25.07z M251.8,32.7
				c3.36,0.85,5.51,2.58,5.51,6.19c0,5.75-5.51,7.81-12.52,7.81c-3.39,0-7.11-0.14-9.74-0.41c-0.18-0.02-0.32-0.17-0.32-0.36V20.81
				c0-0.18,0.12-0.33,0.3-0.36c2.47-0.42,5.55-0.72,8.78-0.72c6.97,0,12,1.95,12,7.15c0,2.87-1.58,4.9-4.01,5.53V32.7z
				 M240.77,30.64h4.05c3,0,4.78-1,4.78-3.06c0-2.25-2.11-3.21-5.63-3.21c-1.3,0-2.35,0.07-3.2,0.22V30.64z M240.77,41.84
				c1.09,0.11,2.47,0.18,4.01,0.18c3.93,0,6.24-1.03,6.24-3.39s-2.35-3.39-6.16-3.39h-4.09V41.84z M315.47,35.43h-12.2V45.8
				c0,0.14-0.08,0.28-0.22,0.33c-0.62,0.24-1.56,0.39-2.82,0.39s-2.2-0.15-2.82-0.39c-0.14-0.05-0.22-0.19-0.22-0.33V20.75
				c0-0.15,0.08-0.28,0.22-0.33c0.62-0.24,1.56-0.39,2.82-0.39s2.2,0.15,2.82,0.39c0.14,0.05,0.22,0.19,0.22,0.33v9.86h12.2v-9.86
				c0-0.15,0.08-0.28,0.22-0.33c0.62-0.24,1.56-0.39,2.82-0.39c1.26,0,2.2,0.15,2.82,0.39c0.14,0.05,0.22,0.19,0.22,0.33V45.8
				c0,0.14-0.08,0.28-0.22,0.33c-0.62,0.24-1.56,0.39-2.82,0.39c-1.26,0-2.2-0.15-2.82-0.39c-0.14-0.05-0.22-0.19-0.22-0.33V35.43z"
				/>
			<path d="M158.21,67.33c0,9.25-5.39,14.22-13.7,14.22c-8.84,0-13.74-4.68-13.74-14.22c0-8.58,5.76-13.67,13.74-13.67
				C152.7,53.66,158.21,58.38,158.21,67.33z M144.51,76.69c4.82,0,7.38-3.35,7.38-9.36c0-5.53-2.92-8.84-7.38-8.84
				c-4.82,0-7.42,3.24-7.42,8.84C137.09,73.33,139.81,76.69,144.51,76.69z M179.06,59.26l-4.85,21.07
				c-0.03,0.14-0.13,0.24-0.27,0.27c-0.93,0.19-2.31,0.32-4,0.32c-1.69,0-3.03-0.13-3.96-0.32c-0.14-0.03-0.24-0.13-0.27-0.27
				l-5.96-25.18c-0.04-0.17,0.05-0.35,0.21-0.42c0.56-0.24,1.46-0.37,2.76-0.37c1.24,0,2.3,0.13,2.97,0.44
				c0.1,0.05,0.17,0.14,0.19,0.25l4.34,20.83h0.16L175,54.88c0.03-0.13,0.13-0.24,0.26-0.27c0.93-0.22,2.31-0.35,4-0.35
				c1.62,0,3.02,0.13,3.96,0.35c0.13,0.03,0.23,0.14,0.26,0.27l4.57,21.01h0.16l4.42-20.9c0.02-0.11,0.1-0.21,0.2-0.26
				c0.6-0.24,1.61-0.37,2.79-0.37c1.25,0,2.08,0.1,2.62,0.31c0.17,0.06,0.27,0.25,0.22,0.42l-6.08,25.24
				c-0.03,0.13-0.13,0.24-0.27,0.27c-0.93,0.19-2.27,0.32-3.96,0.32c-1.72,0-3.1-0.13-4.04-0.32c-0.14-0.03-0.24-0.14-0.27-0.28
				l-4.66-21.07H179.06z M221.62,75.95c0.15,0,0.29,0.1,0.34,0.24c0.18,0.49,0.3,1.28,0.3,2.12c0,0.84-0.12,1.66-0.3,2.15
				c-0.05,0.14-0.19,0.24-0.34,0.24H202.8c-0.2,0-0.36-0.16-0.36-0.36V54.87c0-0.2,0.16-0.36,0.36-0.36h18.5
				c0.15,0,0.29,0.09,0.34,0.24c0.18,0.49,0.3,1.28,0.3,2.12c0,0.84-0.12,1.63-0.3,2.12c-0.05,0.14-0.19,0.24-0.34,0.24l-12.82,0
				v5.93l11.8,0c0.14,0,0.28,0.08,0.33,0.21c0.19,0.5,0.31,1.25,0.31,2.11c0,0.83-0.12,1.6-0.31,2.11
				c-0.05,0.13-0.19,0.22-0.33,0.22l-11.8,0v6.15L221.62,75.95z M106.64,54.98c0-0.17,0.12-0.32,0.29-0.35
				c2.15-0.41,5.61-0.64,8.48-0.64c6.9,0,12.88,1.65,12.88,9.02c0,7.83-5.3,9.76-15.52,9.76v7.37c0,0.14-0.08,0.28-0.21,0.33
				c-0.59,0.24-1.54,0.38-2.83,0.38c-1.26,0-2.24-0.15-2.86-0.39c-0.14-0.05-0.22-0.19-0.22-0.33V54.98z M112.72,67.88
				c5.25,0,9.36,0.02,9.36-4.62c0-3.42-2.69-4.4-6.58-4.4c-0.97,0-1.89,0.07-2.78,0.22V67.88z M232.82,67.05v-7.97
				c0.89-0.15,1.81-0.22,2.78-0.22c3.9,0,6.44,0.63,6.44,4.05C242.03,66.72,238.79,67.57,232.82,67.05z M249.99,79.77l-6.16-9.27
				c2.95-1.48,4.41-4.05,4.41-7.84c0-7.13-5.84-8.68-12.74-8.68c-2.71,0-6.55,0.24-8.48,0.64c-0.15,0.03-0.29,0.19-0.29,0.35v25.15
				c0,0.14,0.08,0.27,0.21,0.33c0.63,0.24,1.6,0.39,2.87,0.39c1.3,0,2.25-0.15,2.84-0.39c0.13-0.06,0.2-0.19,0.2-0.33v-8.17
				c1.82,0.1,3.48,0.1,4.98-0.02l5.58,8.54c0.04,0.06,0.11,0.11,0.18,0.13c0.84,0.21,1.97,0.29,3.57,0.17
				c1.17-0.08,2.09-0.25,2.69-0.48C250.06,80.24,250.13,79.99,249.99,79.77z"/>
		</g>
		<g>
			<polygon class="st1" points="31.06,26.9 46.59,53.8 62.13,26.9 46.59,0 			"/>
			<polygon class="st1" points="31.06,80.7 46.59,53.8 15.53,53.8 0,80.7 			"/>
			<polygon class="st1" points="77.66,53.8 46.59,53.8 62.13,80.7 93.19,80.7 			"/>
		</g>
	</g>
</g>
</svg>
