<svg id="MHIG_Black" xmlns="http://www.w3.org/2000/svg" width="383.85" height="225.73" viewBox="0 0 383.85 225.73">
  <g id="logo">
    <path id="パス_1" data-name="パス 1" d="M2.39,1.45A.67.67,0,0,1,3.12.76h8.63a1.12,1.12,0,0,1,1.17.69L25.39,28.19h.3L38,1.45A1.12,1.12,0,0,1,39.11.76H47.6a.67.67,0,0,1,.73.69V46.94a.68.68,0,0,1-.73.69H39.4a.68.68,0,0,1-.73-.69V20.54h-.29L29.25,40.32a1.41,1.41,0,0,1-1.38.9h-5a1.4,1.4,0,0,1-1.38-.9L12.34,20.54H12v26.4a.67.67,0,0,1-.72.69H3.12a.67.67,0,0,1-.73-.69Z"/>
    <path id="パス_2" data-name="パス 2" d="M57.55,1.45a.67.67,0,0,1,.73-.69h9.21a.66.66,0,0,1,.72.69V46.94a.67.67,0,0,1-.72.69H58.28a.67.67,0,0,1-.73-.69Z"/>
    <path id="パス_3" data-name="パス 3" d="M88.32,47.63a.68.68,0,0,1-.73-.69V10.2c0-.27-.14-.41-.43-.41H74.68A.67.67,0,0,1,74,9.1V1.45a.66.66,0,0,1,.72-.69h36.5a.66.66,0,0,1,.72.69V9.1a.67.67,0,0,1-.72.69H98.7c-.29,0-.44.14-.44.41V46.94a.67.67,0,0,1-.72.69Z"/>
    <path id="パス_4" data-name="パス 4" d="M114.82,42a.81.81,0,0,1-.07-1.17l5.51-6a.75.75,0,0,1,1.09-.07c3.27,2.48,7.7,4.83,12.91,4.83s8.06-2.28,8.06-5.59c0-2.76-1.74-4.48-7.62-5.23l-2.61-.35c-10-1.31-15.6-5.79-15.6-14.06C116.49,5.73,123.31,0,134,0c6.52,0,12.62,1.86,16.76,4.9.43.27.5.54.15,1l-4.43,6.27a.76.76,0,0,1-1,.21A21.17,21.17,0,0,0,134,8.82c-4.36,0-6.6,2.14-6.6,5.1,0,2.69,2,4.41,7.69,5.17l2.61.35c10.16,1.31,15.53,5.72,15.53,14.2s-6.61,14.75-19.37,14.75C126.14,48.39,118.67,45.49,114.82,42Z"/>
    <path id="パス_5" data-name="パス 5" d="M159.85,30.4V1.45a.66.66,0,0,1,.72-.69h9.22a.66.66,0,0,1,.72.69V30.68c0,5.58,3.27,8.75,8.28,8.75s8.2-3.17,8.2-8.75V1.45a.66.66,0,0,1,.72-.69h9.22a.66.66,0,0,1,.72.69v29c0,11.65-7.83,18-18.86,18S159.85,42.05,159.85,30.4Z"/>
    <path id="パス_6" data-name="パス 6" d="M206.64,1.45a.66.66,0,0,1,.72-.69h19.23c10.73,0,15.75,5,15.75,12.48a10.644,10.644,0,0,1-5.74,10v.14c3.26,1.17,6.61,5,6.61,10.61,0,9.24-6.46,13.65-17.13,13.65H207.36a.67.67,0,0,1-.72-.69Zm18.65,18.47c4.06,0,6.45-2.07,6.45-5.51S229.35,9,225.29,9h-7.55c-.29,0-.44.14-.44.41v10.1c0,.27.15.41.44.41Zm-7.55,19.51h8.12c4.36,0,6.68-2.21,6.68-5.87s-2.32-5.85-6.68-5.85h-8.12c-.29,0-.44.14-.44.41V39a.385.385,0,0,0,.44.43Z"/>
    <path id="パス_7" data-name="パス 7" d="M250.63,1.45a.66.66,0,0,1,.72-.69h9.22a.66.66,0,0,1,.72.69V46.94a.67.67,0,0,1-.72.69h-9.22a.67.67,0,0,1-.72-.69Z"/>
    <path id="パス_8" data-name="パス 8" d="M268.06,42a.82.82,0,0,1-.07-1.17l5.51-6a.75.75,0,0,1,1.09-.07c3.27,2.48,7.69,4.83,12.91,4.83s8.06-2.28,8.06-5.59c0-2.76-1.74-4.48-7.62-5.23l-2.61-.35c-10-1.31-15.6-5.79-15.6-14.06C269.73,5.73,276.55,0,287.21,0c6.53,0,12.63,1.86,16.77,4.9.43.27.5.54.14,1l-4.43,6.27a.74.74,0,0,1-1,.21,21.18,21.18,0,0,0-11.47-3.59c-4.35,0-6.6,2.14-6.6,5.1,0,2.69,2,4.41,7.69,5.17l2.61.35c10.16,1.31,15.53,5.72,15.53,14.2s-6.6,14.75-19.37,14.75C279.38,48.39,271.9,45.49,268.06,42Z"/>
    <path id="パス_9" data-name="パス 9" d="M313.19,1.45a.66.66,0,0,1,.72-.69h9.22a.66.66,0,0,1,.72.69V19c0,.28.15.42.44.42H340.4a.37.37,0,0,0,.43-.42V1.45a.67.67,0,0,1,.73-.69h9.21a.66.66,0,0,1,.72.69V46.94a.66.66,0,0,1-.72.69h-9.21a.67.67,0,0,1-.73-.69V28.88c0-.27-.14-.41-.43-.41H324.29c-.29,0-.44.14-.44.41V46.94a.66.66,0,0,1-.72.69h-9.22a.67.67,0,0,1-.72-.69Z"/>
    <path id="パス_10" data-name="パス 10" d="M360.72,1.45a.67.67,0,0,1,.73-.69h9.22a.66.66,0,0,1,.72.69V46.94a.67.67,0,0,1-.72.69h-9.22a.67.67,0,0,1-.73-.69Z"/>
    <path id="パス_11" data-name="パス 11" d="M2.39,60.54a.67.67,0,0,1,.73-.69h9.22a.67.67,0,0,1,.72.69V78.12c0,.27.14.42.44.42H29.61a.38.38,0,0,0,.43-.42V60.54a.67.67,0,0,1,.73-.69H40a.67.67,0,0,1,.72.69V106a.67.67,0,0,1-.72.7H30.77A.67.67,0,0,1,30,106V88a.37.37,0,0,0-.43-.42H13.5c-.3,0-.44.14-.44.42v18a.67.67,0,0,1-.72.7H3.12a.67.67,0,0,1-.73-.7Z"/>
    <path id="パス_12" data-name="パス 12" d="M49.93,60.54a.67.67,0,0,1,.72-.69H82.29a.67.67,0,0,1,.72.69v7.38a.67.67,0,0,1-.72.69H61c-.3,0-.44.14-.44.41v9.3c0,.28.14.42.44.42H78.7a.68.68,0,0,1,.72.69v7.31a.67.67,0,0,1-.72.68H61c-.3,0-.44.14-.44.42v9.72c0,.27.14.41.44.41H82.29a.67.67,0,0,1,.72.69V106a.67.67,0,0,1-.72.7H50.65a.67.67,0,0,1-.72-.7Z"/>
    <path id="パス_13" data-name="パス 13" d="M104.67,60.54a.93.93,0,0,1,.94-.69h9.14a1,1,0,0,1,1,.69L132.38,106c.15.42,0,.7-.5.7h-9.44a.86.86,0,0,1-.94-.7l-2.83-8.2H101.4L98.65,106a.87.87,0,0,1-.94.7H88.19c-.5,0-.64-.28-.5-.7Zm11.1,28.67-5.59-16.4H110l-5.59,16.4Z"/>
    <path id="パス_14" data-name="パス 14" d="M145.18,106.73a.94.94,0,0,1-1-.7L128.56,60.61c-.15-.48.15-.76.66-.76h9.43a.88.88,0,0,1,.95.69l9.86,30.75h.21l9.58-30.75a.88.88,0,0,1,.95-.69h9.36a.55.55,0,0,1,.58.76L154.46,106a.91.91,0,0,1-.86.7Z"/>
    <path id="パス_15" data-name="パス 15" d="M188.8,106.73a.67.67,0,0,1-.72-.7V88L173.49,60.5c-.15-.35,0-.69.51-.69h9.44a1.07,1.07,0,0,1,1.07.69l8.93,17.09h.22l8.93-17.09a1.07,1.07,0,0,1,1.08-.69h9.15c.5,0,.73.34.5.69L198.74,88v18a.67.67,0,0,1-.73.7Z"/>
    <path id="パス_16" data-name="パス 16" d="M2.39,119.63a.67.67,0,0,1,.73-.68h9.22a.66.66,0,0,1,.72.68v45.5a.67.67,0,0,1-.72.69H3.12a.67.67,0,0,1-.73-.69Z"/>
    <path id="パス_17" data-name="パス 17" d="M22.17,119.63a.66.66,0,0,1,.72-.68H31.6a1.36,1.36,0,0,1,1.24.68l17.42,29.5h.35v-29.5a.66.66,0,0,1,.72-.68h8.21a.66.66,0,0,1,.72.68v45.5a.67.67,0,0,1-.72.69H50.9a1.27,1.27,0,0,1-1.22-.69L32.18,135.7h-.36v29.43a.67.67,0,0,1-.72.69H22.89a.67.67,0,0,1-.72-.69Z"/>
    <path id="パス_18" data-name="パス 18" d="M69.49,119.63a.66.66,0,0,1,.72-.68H88.57c8.64,0,14.65,3.51,17.05,10.54.86,2.62,1.3,5.24,1.3,12.89s-.44,10.27-1.3,12.89c-2.4,7-8.41,10.55-17.05,10.55H70.21a.67.67,0,0,1-.72-.69Zm11.1,37.15h5.58c4.94,0,7.91-1.37,9.14-5.17.52-1.37.8-3.17.8-9.23s-.28-7.86-.8-9.23c-1.23-3.8-4.2-5.18-9.14-5.18H80.59c-.3,0-.44.14-.44.42v28C80.15,156.65,80.29,156.78,80.59,156.78Z"/>
    <path id="パス_19" data-name="パス 19" d="M114.2,148.59v-29a.67.67,0,0,1,.73-.68h9.21a.67.67,0,0,1,.73.68v29.23c0,5.59,3.26,8.76,8.27,8.76s8.2-3.17,8.2-8.76V119.63a.66.66,0,0,1,.72-.68h9.22a.66.66,0,0,1,.72.68v29c0,11.64-7.83,18-18.86,18S114.2,160.23,114.2,148.59Z"/>
    <path id="パス_20" data-name="パス 20" d="M157.77,160.17a.83.83,0,0,1-.08-1.18l5.52-6a.75.75,0,0,1,1.09-.06,21.55,21.55,0,0,0,12.92,4.82c5.14,0,8.05-2.27,8.05-5.58,0-2.76-1.74-4.48-7.62-5.24l-2.61-.34c-10-1.31-15.6-5.8-15.6-14.07,0-8.61,6.83-14.33,17.49-14.33,6.52,0,12.62,1.86,16.76,4.89.43.28.5.55.14,1l-4.42,6.27a.76.76,0,0,1-1,.2A21.16,21.16,0,0,0,176.93,127c-4.36,0-6.61,2.14-6.61,5.1,0,2.68,2,4.41,7.69,5.17l2.62.34c10.15,1.32,15.52,5.73,15.52,14.21s-6.6,14.74-19.37,14.74C169.09,166.57,161.62,163.68,157.77,160.17Z"/>
    <path id="パス_21" data-name="パス 21" d="M213.18,165.82a.66.66,0,0,1-.71-.69V128.39c0-.28-.16-.42-.45-.42H199.54a.66.66,0,0,1-.72-.68v-7.66a.66.66,0,0,1,.72-.68H236a.66.66,0,0,1,.72.68v7.66a.66.66,0,0,1-.72.68H223.56c-.29,0-.44.14-.44.42v36.74a.67.67,0,0,1-.73.69Z"/>
    <path id="パス_22" data-name="パス 22" d="M269.86,165.82a1,1,0,0,1-1.09-.69L260.29,148h-6.6c-.3,0-.44.14-.44.42v16.75a.67.67,0,0,1-.73.69h-9.21a.67.67,0,0,1-.73-.69v-45.5a.67.67,0,0,1,.73-.68H263c10.09,0,16.76,6,16.76,14.54a13.72,13.72,0,0,1-8.78,13L280.67,165a.53.53,0,0,1-.5.83Zm-.79-32.33c0-3.51-2.62-5.79-6.68-5.79h-8.7c-.3,0-.44.14-.44.41v10.83c0,.27.14.41.44.41h8.7c4.06,0,6.68-2.28,6.68-5.86Z"/>
    <path id="パス_23" data-name="パス 23" d="M287.18,119.63a.66.66,0,0,1,.72-.68h9.22a.66.66,0,0,1,.72.68v45.5a.67.67,0,0,1-.72.69H287.9a.67.67,0,0,1-.72-.69Z"/>
    <path id="パス_24" data-name="パス 24" d="M307,119.63a.67.67,0,0,1,.73-.68h31.63a.67.67,0,0,1,.73.68V127a.67.67,0,0,1-.73.69H318.05a.38.38,0,0,0-.43.41v9.31a.38.38,0,0,0,.43.41h17.71a.66.66,0,0,1,.72.69v7.31a.66.66,0,0,1-.72.69H318.05a.38.38,0,0,0-.43.41v9.72a.38.38,0,0,0,.43.41h21.26a.67.67,0,0,1,.73.69v7.38a.67.67,0,0,1-.73.69H307.68a.68.68,0,0,1-.73-.69Z"/>
    <path id="パス_25" data-name="パス 25" d="M345.47,160.17a.82.82,0,0,1-.07-1.18l5.51-6a.74.74,0,0,1,1.08-.06,21.63,21.63,0,0,0,12.93,4.82c5.15,0,8.05-2.27,8.05-5.58,0-2.76-1.74-4.48-7.62-5.24l-2.62-.34c-10-1.31-15.59-5.8-15.59-14.07,0-8.61,6.81-14.33,17.48-14.33,6.54,0,12.62,1.86,16.76,4.89.43.28.51.55.15,1l-4.43,6.27a.74.74,0,0,1-1,.2A21.14,21.14,0,0,0,364.62,127c-4.34,0-6.6,2.14-6.6,5.1,0,2.68,2,4.41,7.7,5.17l2.61.34c10.15,1.32,15.52,5.73,15.52,14.21s-6.61,14.74-19.38,14.74C356.79,166.57,349.31,163.68,345.47,160.17Z"/>
    <path id="パス_26" data-name="パス 26" d="M0,201.47c0-7,.29-9.58,1.38-12.81,2.54-7.59,9.36-11.38,18.14-11.38,9.21,0,15.23,4.34,17.55,10a.68.68,0,0,1-.29,1L29,191.41c-.51.14-.88,0-1-.34a9.07,9.07,0,0,0-8.49-4.82c-4.21,0-6.82,2-7.91,5.23-.59,1.66-.8,3.86-.8,10s.21,8.42.8,10.08c1.09,3.22,3.77,5.16,8.06,5.16,3.7,0,6.89-1.73,7.9-4.83a15.18,15.18,0,0,0,.58-4.61c0-.28-.14-.42-.44-.42H21a.66.66,0,0,1-.72-.69v-6.61a.66.66,0,0,1,.72-.69H38a.67.67,0,0,1,.73.69v3.86A35.57,35.57,0,0,1,37.51,214c-2.46,7.51-9.28,11.72-18,11.72S3.92,221.88,1.38,214.3C.29,211.05,0,208.43,0,201.47Z"/>
    <path id="パス_27" data-name="パス 27" d="M73,224.92a1,1,0,0,1-1.08-.7l-8.5-17.16h-6.6c-.29,0-.43.13-.43.41v16.75a.69.69,0,0,1-.73.7h-9.2a.68.68,0,0,1-.72-.7V178.73a.67.67,0,0,1,.72-.69H66.12c10.09,0,16.77,6,16.77,14.54a13.71,13.71,0,0,1-8.79,13l9.73,18.47a.54.54,0,0,1-.51.84Zm-.81-32.34c0-3.51-2.6-5.78-6.67-5.78h-8.7c-.29,0-.43.13-.43.41V198c0,.29.14.42.43.42h8.7c4.09.02,6.69-2.25,6.69-5.84Z"/>
    <path id="パス_28" data-name="パス 28" d="M90.11,214.3c-1.09-3.25-1.38-5.87-1.38-12.83s.29-9.58,1.38-12.81c2.55-7.59,9.36-11.38,18-11.38s15.45,3.79,18,11.38c1.09,3.23,1.38,5.85,1.38,12.81s-.29,9.58-1.38,12.83c-2.54,7.58-9.36,11.37-18,11.37S92.66,221.88,90.11,214.3Zm25.76-2.75c.58-1.66.8-3.94.8-10.08s-.22-8.41-.8-10.06c-1.09-3.24-3.7-5.16-7.76-5.16s-6.68,1.92-7.77,5.16c-.58,1.65-.79,3.93-.79,10.06s.21,8.42.79,10.08c1.09,3.22,3.7,5.16,7.77,5.16S114.78,214.77,115.87,211.55Z"/>
    <path id="パス_29" data-name="パス 29" d="M134.36,207.68v-29a.67.67,0,0,1,.73-.69h9.21a.67.67,0,0,1,.73.69V208c0,5.59,3.26,8.76,8.27,8.76s8.2-3.17,8.2-8.76V178.73a.67.67,0,0,1,.72-.69h9.22a.67.67,0,0,1,.72.69v29c0,11.65-7.83,18-18.86,18S134.36,219.33,134.36,207.68Z"/>
    <path id="パス_30" data-name="パス 30" d="M181.22,224.92a.67.67,0,0,1-.72-.7V178.73a.66.66,0,0,1,.72-.69h19.16c10.74,0,17.2,6.13,17.2,15.1s-6.53,15-17.2,15H191.6c-.29,0-.44.14-.44.42V224.2a.68.68,0,0,1-.72.7Zm25.68-31.78c0-3.8-2.68-6.34-7.18-6.34H191.6c-.29,0-.44.13-.44.41V199c0,.27.15.41.44.41h8.12C204.22,199.41,206.9,196.92,206.9,193.14Z"/>
  </g>
</svg>
