<svg xmlns="http://www.w3.org/2000/svg" width="24" height="24" viewBox="0 0 24 24">
  <path id="sns-linkedin" d="M22.223,0H1.772A1.75,1.75,0,0,0,0,1.73V22.266A1.754,1.754,0,0,0,1.772,24H22.223A1.757,1.757,0,0,0,24,22.27V1.73A1.754,1.754,0,0,0,22.223,0ZM7.12,20.452H3.558V9H7.12ZM5.339,7.434A2.063,2.063,0,1,1,7.4,5.372,2.064,2.064,0,0,1,5.339,7.434ZM20.452,20.452H16.894V14.883c0-1.327-.023-3.038-1.852-3.038-1.852,0-2.133,1.448-2.133,2.944v5.662H9.356V9h3.413v1.566h.047a3.738,3.738,0,0,1,3.366-1.852c3.6,0,4.27,2.372,4.27,5.456Z" fill="#333"/>
</svg>
