<svg xmlns="http://www.w3.org/2000/svg" width="29.537" height="24" viewBox="0 0 29.537 24">
  <path id="sns-twitter" d="M9.292,28.5c11.143,0,17.24-9.234,17.24-17.24,0-.26-.006-.525-.017-.785a12.306,12.306,0,0,0,3.022-3.137,11.948,11.948,0,0,1-3.478.952,6.092,6.092,0,0,0,2.665-3.351,12.181,12.181,0,0,1-3.847,1.471,6.068,6.068,0,0,0-10.331,5.526A17.212,17.212,0,0,1,7.63,10.1a17.212,17.212,0,0,1-5.572-4.49,6.067,6.067,0,0,0,1.875,8.086,6.067,6.067,0,0,1-2.745-.756v.075a6.057,6.057,0,0,0,4.862,5.942,6.023,6.023,0,0,1-2.734.1A6.072,6.072,0,0,0,8.975,23.27,12.154,12.154,0,0,1,0,25.777,17.191,17.191,0,0,0,9.292,28.5Z" transform="translate(0 -4.499)" fill="#333"/>
</svg>
