<svg xmlns="http://www.w3.org/2000/svg" width="24" height="24" viewBox="0 0 24 24"><path d="M24,12A12,12,0,1,0,10.125,23.854V15.469H7.078V12h3.047V9.356c0-3.007,1.792-4.669,4.533-4.669a18.46,18.46,0,0,1,2.686.234V7.875H15.831A1.735,1.735,0,0,0,13.875,9.75V12H17.2l-.532,3.469h-2.8v8.385A12,12,0,0,0,24,12Z" fill="#333"/><path d="M23.749,20.156l.532-3.469H20.953v-2.25a1.735,1.735,0,0,1,1.956-1.875h1.513V9.609a18.452,18.452,0,0,0-2.686-.234c-2.741,0-4.533,1.661-4.533,4.669v2.644H14.156v3.469H17.2v8.385a12.129,12.129,0,0,0,3.75,0V20.156Z" transform="translate(-7.078 -4.688)" fill="#fff"/></svg>