<svg xmlns="http://www.w3.org/2000/svg" width="34.124" height="24" viewBox="0 0 34.124 24">
  <path id="sns-youtube" d="M33.784,12.294a7.349,7.349,0,0,0-1.36-3.386,4.886,4.886,0,0,0-3.419-1.446c-4.772-.347-11.937-.347-11.937-.347h-.013s-7.165,0-11.937.347A4.886,4.886,0,0,0,1.7,8.909,7.31,7.31,0,0,0,.347,12.294,50.951,50.951,0,0,0,0,17.819v2.586A51.934,51.934,0,0,0,.34,25.93a7.39,7.39,0,0,0,1.353,3.386,5.818,5.818,0,0,0,3.766,1.46c2.733.26,11.6.34,11.6.34s7.171-.013,11.943-.353a4.886,4.886,0,0,0,3.419-1.446,7.349,7.349,0,0,0,1.36-3.386,51.771,51.771,0,0,0,.34-5.525V17.819A51.938,51.938,0,0,0,33.784,12.294ZM13.536,23.544V13.954l9.217,4.812Z" transform="translate(0 -7.115)" fill="#333"/>
</svg>
