<svg xmlns="http://www.w3.org/2000/svg" width="24" height="24" viewBox="0 0 24 24">
  <path id="sns-rss" d="M21.914,24a2.088,2.088,0,0,1-2.088-2.088A17.759,17.759,0,0,0,2.088,4.173,2.086,2.086,0,1,1,2.088,0a21.772,21.772,0,0,1,15.5,6.414A21.77,21.77,0,0,1,24,21.912,2.086,2.086,0,0,1,21.914,24M2.088,8.034A13.894,13.894,0,0,1,15.966,21.912a2.087,2.087,0,1,1-4.174,0,9.713,9.713,0,0,0-9.7-9.7,2.087,2.087,0,1,1,0-4.174m1.3,9.184A3.391,3.391,0,1,1,0,20.61a3.4,3.4,0,0,1,3.392-3.392" fill="#333" fill-rule="evenodd"/>
</svg>
